<?xml version="1.0" encoding="utf-8"?>
<!-- Generator: Adobe Illustrator 21.0.2, SVG Export Plug-In . SVG Version: 6.00 Build 0)  -->
<svg version="1.1" id="Layer_1" xmlns="http://www.w3.org/2000/svg" xmlns:xlink="http://www.w3.org/1999/xlink" x="0px" y="0px"
	 viewBox="0 0 500 500" style="enable-background:new 0 0 500 500;" xml:space="preserve">
<style type="text/css">
	.st0{fill:#FFFFFF;}
</style>
<g>
	<g>
		<polygon class="st0" points="101.5,233.8 135.1,200.1 198.2,263.2 263.2,198.2 200.1,135.1 233.8,101.5 398.5,266.2 364.9,299.9 
			291,226 226,291 299.9,364.9 266.2,398.5 		"/>
		<path d="M233.8,102.2l164,164l-32.9,32.9L291.7,226l-0.7-0.7l-0.7,0.7L226,290.3l-0.7,0.7l0.7,0.7l73.1,73.1l-32.9,32.9l-164-164
			l32.9-32.9l62.4,62.4l0.7,0.7l0.7-0.7l64.3-64.3l0.7-0.7l-0.7-0.7l-62.4-62.4L233.8,102.2 M233.8,100.8l-34.3,34.3l63.1,63.1
			l-64.3,64.3l-63.1-63.1l-34.3,34.3l165.4,165.4l34.3-34.3L226.7,291l64.3-64.3l73.9,73.9l34.3-34.3L233.8,100.8L233.8,100.8z"/>
	</g>
</g>
</svg>
